Coordinates
version=1
nRows=8
nColumns=40
inDegrees=yes

Units are S.I. units (second, meters, Newtons, ...)
Angles are in degrees.

endheader
time	pelvis_tilt	pelvis_list	pelvis_rotation	pelvis_tx	pelvis_ty	pelvis_tz	hip_flexion_r	hip_adduction_r	hip_rotation_r	knee_angle_r	knee_angle_r_beta	ankle_angle_r	subtalar_angle_r	mtp_angle_r	hip_flexion_l	hip_adduction_l	hip_rotation_l	knee_angle_l	knee_angle_l_beta	ankle_angle_l	subtalar_angle_l	mtp_angle_l	lumbar_extension	lumbar_bending	lumbar_rotation	arm_flex_r	arm_add_r	arm_rot_r	elbow_flex_r	pro_sup_r	wrist_flex_r	wrist_dev_r	arm_flex_l	arm_add_l	arm_rot_l	elbow_flex_l	pro_sup_l	wrist_flex_l	wrist_dev_l
      0.70000000	     -1.99985237	      4.82602173	     -1.92534658	     -0.57676072	      0.96351497	      0.99528091	     18.23139513	    -18.18647668	    -19.34346141	    -48.53173703	     -0.84703860	      3.06762021	    -15.79901720	     15.04151390	      5.58057577	     -8.49728474	     13.03887345	    -10.94229904	     -0.19097915	      3.57450403	      4.39821248	     -0.14579271	     -2.74980924	     -5.31093995	     -2.47648293	     -0.96388330	    -10.42360521	    -15.02013989	     20.14401150	     89.95437384	      0.00000000	      0.00000000	      5.85610646	     12.88462571	      1.63250360	     19.62387939	     89.95437384	      0.00000000	      0.00000000
      0.71000000	     -2.27725836	      4.52029185	     -1.47317625	     -0.57121571	      0.96335505	      0.99437595	     19.18328968	    -17.66829240	    -19.68479581	    -47.29264319	     -0.82541234	      3.28033150	    -15.20768654	     14.90711784	      5.38143765	     -8.24205518	     12.68660619	    -10.78543356	     -0.18824133	      3.72961345	      4.15239806	     -0.29210458	     -2.65920246	     -5.00075587	     -2.95955381	     -1.09771606	    -10.33055028	    -15.36687209	     20.21315850	     89.95437384	      0.00000000	      0.00000000	      6.37570317	     13.14584374	      1.25127690	     20.18617112	     89.95437384	      0.00000000	      0.00000000
      0.72000000	     -2.47574062	      4.21873544	     -1.00333601	     -0.56573260	      0.96317299	      0.99348102	     20.02038982	    -17.17432261	    -20.02432410	    -45.99211804	     -0.80271389	      3.37767555	    -14.53480332	     14.75457984	      5.15406028	     -7.98172919	     12.37941395	    -10.71994298	     -0.18709830	      3.99680588	      3.94403344	     -0.46718728	     -2.67195504	     -4.69251342	     -3.45172633	     -1.17605060	    -10.21839126	    -15.78148964	     20.25153253	     89.95437384	      0.00000000	      0.00000000	      6.93090365	     13.39161794	      0.86277254	     20.81621654	     89.95437384	      0.00000000	      0.00000000
      0.73000000	     -2.65968004	      3.95152810	     -0.53025121	     -0.56018615	      0.96292742	      0.99267950	     20.78988491	    -16.73886325	    -20.46103910	    -44.61157329	     -0.77861884	      3.51500946	    -13.84422140	     14.56818523	      4.93694457	     -7.74442852	     12.09199055	    -10.72751050	     -0.18723038	      4.18192181	      3.77843733	     -0.69438887	     -2.67954283	     -4.43058625	     -3.90086549	     -1.25837368	    -10.09102112	    -16.32410274	     20.28023770	     89.95437384	      0.00000000	      0.00000000	      7.48618573	     13.65984970	      0.36021553	     21.46204269	     89.95437384	      0.00000000	      0.00000000
      0.74000000	     -2.83274453	      3.75139312	     -0.19264334	     -0.55463581	      0.96261883	      0.99209490	     21.59588456	    -16.31993055	    -20.66733603	    -43.20111739	     -0.75400174	      3.53345723	    -13.15451100	     14.39238793	      4.69098050	     -7.56099267	     11.92720414	    -10.64389354	     -0.18577099	      4.41650131	      3.55145371	     -0.90180584	     -2.68530829	     -4.23268602	     -4.25286377	     -1.32154972	     -9.99212529	    -16.70741595	     20.32167803	     89.95437384	      0.00000000	      0.00000000	      7.98790044	     13.92393375	     -0.04780716	     22.18566426	     89.95437384	      0.00000000	      0.00000000
      0.75000000	     -2.95315524	      3.56473344	      0.10093897	     -0.54899762	      0.96228176	      0.99168511	     22.31175633	    -15.91198092	    -20.90243540	    -41.71340026	     -0.72803618	      3.51013465	    -12.48209253	     14.22648133	      4.40941779	     -7.39031775	     11.78994800	    -10.62334612	     -0.18541237	      4.65860186	      3.39684058	     -1.12300062	     -2.73057646	     -4.06498475	     -4.52349196	     -1.39373107	     -9.86097370	    -17.10797459	     20.33097958	     89.95437384	      0.00000000	      0.00000000	      8.56068657	     14.13134802	     -0.42017864	     22.74031577	     89.95437384	      0.00000000	      0.00000000
      0.76000000	     -3.16941284	      3.65680957	      0.32855558	     -0.54328758	      0.96166516	      0.99116952	     23.25448675	    -15.85363288	    -21.09265606	    -40.41702828	     -0.70541022	      3.58579098	    -12.09769924	     14.05593614	      4.24008668	     -7.52387478	     12.00268839	    -10.60963321	     -0.18517303	      4.86273569	      3.29658211	     -1.21300205	     -2.63688621	     -4.18647457	     -4.76348453	     -1.53772216	     -9.80185595	    -17.12281328	     20.43191086	     89.95437384	      0.00000000	      0.00000000	      9.07653628	     14.34330833	     -0.52072241	     23.28829146	     89.95437384	      0.00000000	      0.00000000
      0.77000000	     -2.86937648	      3.19075160	      0.63328733	     -0.53731065	      0.96202790	      0.99121623	     23.17063208	    -15.09160664	    -21.56081468	    -38.43386490	     -0.67079749	      3.39814735	    -11.11354048	     13.90362363	      3.42651430	     -6.97241494	     11.86507993	    -10.49508165	     -0.18317373	      4.99012886	      2.66165483	     -1.75708089	     -3.16497141	     -3.71991888	     -4.98505011	     -1.46553514	     -9.58878824	    -18.09699472	     20.29991690	     89.95437384	      0.00000000	      0.00000000	      9.55747019	     14.63330027	     -1.27449439	     24.18437871	     89.95437384	      0.00000000	      0.00000000
